<svg width="828" height="950" viewBox="0 0 828 950" fill="none" xmlns="http://www.w3.org/2000/svg">
<path d="M179.565 738.862L185.533 742.308C185.533 742.308 188.058 856.449 187.684 866.39C187.309 876.332 184.217 873.16 184.217 873.16C184.217 873.16 178.682 883.79 172.397 894.66C167.547 891.749 159.902 883.88 159.524 883.49C159.826 883.855 166.738 892.418 169.553 899.499C167.239 903.367 164.924 907.065 162.824 910.092C154.064 922.759 146.132 923.967 145.089 922.641C144.046 921.315 150.409 880.85 157.482 844.774C164.555 808.698 174.302 768.026 174.226 761.823C174.15 755.62 179.565 738.862 179.565 738.862Z" fill="url(#paint0_linear_1_32)"/>
<path d="M354.594 799.423C358.544 801.161 363.325 802.173 367.014 799.943C369.211 798.609 370.649 796.344 371.992 794.156C374.671 789.795 377.387 785.213 377.696 780.067C378.107 773.02 373.687 766.439 368.112 762.104C365.396 760.004 362.242 758.244 358.81 758.081C355.607 757.92 352.472 759.174 349.73 760.876C331.974 771.775 336.452 791.411 354.594 799.423Z" fill="url(#paint1_linear_1_32)"/>
<path d="M399.376 755.167C399.8 753.424 399.785 751.602 399.332 749.866C394.778 736.105 363.758 734.753 368.524 753.873C372.738 770.764 395.961 774.395 399.376 755.167Z" fill="url(#paint2_linear_1_32)"/>
<path d="M560.386 393.486C562.702 399.656 569.581 404.1 576.01 402.657C581.918 401.335 585.948 395.886 588.606 390.447C589.092 389.567 589.415 388.607 589.56 387.612C589.56 386.031 589.118 384.481 588.285 383.138C587.371 381.132 586.125 379.295 584.599 377.704C572.722 366.446 554.598 378.087 560.386 393.486Z" fill="url(#paint3_linear_1_32)"/>
<path d="M565.763 344.704C564.81 346.877 563.835 349.158 564.016 351.523C564.418 356.779 570.132 359.917 575.309 360.887C582.916 362.291 590.773 361.185 597.696 357.735C601.418 355.865 605.143 352.721 605.177 348.571C605.205 344.086 600.802 340.73 596.441 339.669C592.08 338.608 587.464 339.068 583.074 338.11C573.247 336.004 570.592 333.677 565.763 344.704Z" fill="url(#paint4_linear_1_32)"/>
<path d="M576.501 328.438C581.902 330.551 587.718 331.337 593.472 332.107C595.99 332.446 598.689 332.748 600.949 331.601C603.047 330.542 604.371 328.423 605.546 326.388C608.642 321.008 611.41 315.446 613.836 309.733C614.449 308.288 615.053 306.668 614.579 305.138C614.077 303.962 613.217 302.973 612.121 302.312C605.872 297.77 598.244 295.546 590.666 294.035C579.806 291.881 568.729 291.024 557.668 291.481C548.268 291.872 533.222 291.916 525.159 297.319C509.483 307.851 538.331 314.027 544.895 315.867C556.083 319.041 565.759 324.245 576.501 328.438Z" fill="url(#paint5_linear_1_32)"/>
<path d="M357.954 827.347C364.745 814.297 354.097 808.149 343.303 796.13C333.519 785.09 322.832 774.886 311.35 765.625C301.404 757.793 293.836 753.986 292.089 754.505C290.343 755.024 288.105 768.923 289.523 773.359C290.941 777.795 327.443 826.731 331.791 829.242C336.139 831.752 343.062 834.694 344.799 834.26C346.537 833.827 356.958 829.263 357.954 827.347Z" fill="url(#paint6_linear_1_32)"/>
<path d="M272.968 761.31C290.755 780.622 327.729 835.477 330.182 840.4C330.397 840.833 330.562 841.289 330.674 841.759C327.1 835.365 309.134 826.51 301.136 829.729C301.136 829.729 311.678 835.625 319.253 841.857C326.828 848.089 327.127 857.978 325.731 860.588C322.518 865.474 315.58 869.869 311.083 867.634C306.585 865.399 299.177 854.249 292.628 846.851C286.078 839.452 258.112 763.252 257.103 761.223C256.094 759.194 258.998 755.434 260.24 755.79C261.482 756.145 272.968 761.31 272.968 761.31Z" fill="url(#paint7_linear_1_32)"/>
<path d="M236.326 742.686L241.752 745.819C241.752 745.819 287.455 829.376 294.038 844.39C300.622 859.404 300.477 864.947 300.322 865.631C297.041 861.396 291.549 856.969 285.304 853.705C279.06 850.442 268.839 848.811 268.839 848.811C279.74 853.667 295.129 875.253 289.182 881.656C286.71 883.936 284.305 885.873 282.639 887.403C277.711 891.883 272.011 892.48 269.118 887.554C266.224 882.628 263.377 869.409 260.082 854.476C256.788 839.542 251.131 804.807 246.186 793.271C241.241 781.735 235.616 765.827 234.74 761.705C233.865 757.582 236.326 742.686 236.326 742.686Z" fill="url(#paint8_linear_1_32)"/>
<path d="M221.166 742.615C221.166 742.615 245.469 799.368 251.751 833.369C258.034 867.37 264.855 873.167 250.846 898.336C236.837 923.505 227.924 891.954 224.308 875.037C220.693 858.119 211.481 744.98 210.865 743.54C210.25 742.1 221.166 742.615 221.166 742.615Z" fill="url(#paint9_linear_1_32)"/>
<path d="M190.677 747.809C194.274 732.876 202.398 740.038 207.16 746.826C211.921 753.615 218.622 828.71 220.723 846.893C221.946 858.607 221.989 870.413 220.853 882.135C215.766 889.675 211.213 897.561 207.227 905.737C205.775 908.686 199.268 908.175 199.268 908.175C199.268 908.175 199.366 917.073 197.722 918.284C194.072 920.969 190.802 921.272 188.598 920.652C184.549 919.521 187.165 880.027 187.165 880.027C187.165 880.027 191.357 771.743 191.379 766.693C191.402 761.642 190.677 747.809 190.677 747.809Z" fill="url(#paint10_linear_1_32)"/>
<path d="M152.818 843.176C152.818 843.176 131.33 879.42 115.534 900.513C112.001 905.309 108.12 909.838 103.922 914.065C101.866 916.113 95.8351 912.41 95.8351 912.41C95.8351 912.41 93.7053 922.434 92.033 923.277C89.5926 924.51 88.0353 924.737 87.5153 924.436C85.963 923.54 89.8479 914.932 89.8479 914.932C89.8479 914.932 120.436 861.325 136.186 813.981C151.935 766.637 162.044 743.506 162.044 743.506L167.47 746.639L170.286 751.158L161.112 796.963L155.975 832.349L152.818 843.176Z" fill="url(#paint11_linear_1_32)"/>
<path d="M139.298 782.902L128.299 818.591C128.299 818.591 108.131 844.665 82.4182 867.639C56.7055 890.612 40.316 888.545 41.5227 887.081C42.7294 885.618 83.7098 850.992 119.279 786.878C154.849 722.764 162.652 718.176 162.652 718.176C162.652 718.176 162.449 728.97 162.743 729.14C163.036 729.309 159.94 747.777 157.162 751.961C154.385 756.145 139.298 782.902 139.298 782.902Z" fill="url(#paint12_linear_1_32)"/>
<path d="M129.96 763.053L113.005 789.636C113.005 789.636 77.2113 827.025 55.2968 839.521C33.3824 852.018 18.3272 853.504 18.3272 853.504C18.3272 853.504 14.5645 852.608 25.4036 846.346C36.2427 840.085 90.24 797.08 125.997 746.266L144.125 722.752C144.125 722.752 148.999 726.369 148.651 726.972C148.303 727.575 145.299 737.878 143.769 739.135C142.24 740.392 129.96 763.053 129.96 763.053Z" fill="url(#paint13_linear_1_32)"/>
<path d="M562.641 289.741C583.91 290.405 616.457 288.589 616.457 288.589C616.457 288.589 598.212 277.05 590.729 266.099C590.729 266.099 617.92 285.395 625.983 273.029C634.047 260.664 617.355 252.595 612.974 252.577C608.593 252.56 586.457 256.096 580.087 256.81C573.717 257.523 508.613 272.986 508.613 272.986L510.356 282.462L562.641 289.741Z" fill="url(#paint14_linear_1_32)"/>
<path d="M619.548 245.924C610.208 246.439 589.722 228.703 589.722 228.703C589.722 228.703 617.892 238.456 621.766 229.118C625.64 219.78 620.319 213.212 617.968 211.854C615.617 210.497 607.527 209.282 606.683 209.107C605.84 208.931 574.483 224.105 572.486 224.831C570.49 225.557 517.343 244.779 512.418 245.703C507.494 246.628 487.748 255.263 487.748 255.263C487.748 255.263 493.518 268.642 497.644 268.562C501.769 268.482 519.102 266.201 520.92 266.306C522.738 266.411 598.592 252.462 598.592 252.462C598.592 252.462 613.406 252.907 614.799 252.114C616.192 251.32 619.548 245.924 619.548 245.924Z" fill="url(#paint15_linear_1_32)"/>
<path d="M618.688 199.278C609.71 200.123 592.632 183.08 592.632 183.08C592.632 183.08 613.383 191.533 615.871 184.962C618.359 178.39 617.637 168.328 615.334 166.366C613.031 164.403 606.295 163.036 606.295 163.036C606.295 163.036 592.267 171.566 589.839 171.42C587.411 171.274 502.217 223.155 501.239 223.213C500.261 223.271 479.807 235.325 478.972 235.154C478.136 234.983 476.93 249.55 478.824 250.08C480.718 250.611 504.248 248.421 504.248 248.421C504.248 248.421 592.265 215.563 593.012 215.21C593.758 214.857 606.936 207.033 609.27 206.802C611.603 206.572 618.688 199.278 618.688 199.278Z" fill="url(#paint16_linear_1_32)"/>
<path d="M593.152 163.646C593.152 163.646 597.703 145.827 598.246 144.885C598.79 143.943 597.11 135.367 597.11 135.367L600.559 127.653L593.758 125.615L539.195 166.294L471.816 218.102L466.473 233.535L486.525 228.162C486.525 228.162 568.013 183.625 568.364 183.416C568.716 183.207 593.152 163.646 593.152 163.646Z" fill="url(#paint17_linear_1_32)"/>
<path d="M563.782 145.323C569.084 135.183 573.002 124.376 575.429 113.194C579.187 95.2684 581.336 89.928 580.634 87.3324C580.185 85.4386 579.935 83.5029 579.889 81.557C579.889 81.557 543.451 124.552 534.69 134.837C525.929 145.121 466.853 203.953 466.853 203.953L463.46 215.8L477.351 213.772L542.779 163.55L563.782 145.323Z" fill="url(#paint18_linear_1_32)"/>
<path d="M534.807 127.098C534.807 127.098 546.307 100.218 547.153 87.4941C542.089 86.4814 536.857 86.6721 531.88 88.051C537.023 83.4678 543.104 80.0623 549.699 78.0725C551.656 73.6782 553.03 69.0464 553.785 64.2952C555.269 55.7377 555.015 43.6647 555.015 43.6647L552.172 40.4455C552.172 40.4455 527.767 91.9559 507.168 122.745C486.569 153.534 471.584 169.69 470.636 171.332C469.687 172.975 457.26 197.772 457.26 197.772L476.657 187.007C476.657 187.007 527.267 136.851 527.936 136.232C528.605 135.614 534.807 127.098 534.807 127.098Z" fill="url(#paint19_linear_1_32)"/>
<path d="M503.248 120.432C503.248 120.432 513.661 80.6265 515.408 47.1623C517.155 13.6982 513.238 12.3208 513.238 12.3208C513.238 12.3208 509.175 30.5319 503.363 52.9185C497.552 75.3052 493.473 92.9344 477.165 127.045C460.857 161.156 453.23 174.366 452.98 176.261C452.73 178.156 454.064 182.302 454.448 182.524C454.833 182.746 465.038 170.342 466.998 167.243C468.958 164.145 489.033 138.981 491.32 135.559C493.607 132.137 503.248 120.432 503.248 120.432Z" fill="url(#paint20_linear_1_32)"/>
<path d="M473.476 123.689C473.476 123.689 483.608 86.3348 482.878 59.7897C482.148 33.2446 477.998 18.6612 477.614 18.4393L473.552 16.0942C473.552 16.0942 475.427 42.2052 468.658 82.3656C461.889 122.526 451.876 146.344 451.774 146.798C451.673 147.252 443.735 166.884 443.24 168.628C442.746 170.372 442.047 175.394 442.047 175.394C442.047 175.394 447.995 169.685 448.616 169.531C449.238 169.378 459.25 151.114 459.985 149.841C460.72 148.567 472.84 130.847 472.941 130.394C473.042 129.94 473.476 123.689 473.476 123.689Z" fill="url(#paint21_linear_1_32)"/>
<path d="M446.359 150.504C446.359 150.504 454.903 117.92 449.991 77.1439C449.991 77.1439 446.38 62.8617 446.726 62.5589C447.072 62.2561 442.911 57.1412 442.911 57.1412L442.054 61.5495C443.673 78.2525 443.939 95.0589 442.85 111.805C441.01 138.815 432.41 176.231 432.41 176.231L433.555 178.077L438.972 169.861L444.361 156.715L446.359 150.504Z" fill="url(#paint22_linear_1_32)"/>
<path d="M175.999 895.434C175.167 896.319 172.984 895.21 170.456 893.358C175.41 887.152 180.036 880.69 184.315 874.001C182.081 881.338 179.293 888.495 175.974 895.409L175.999 895.434Z" fill="black"/>
<path d="M534.807 127.098C538.176 121.437 543.408 108.582 548.239 94.6622L548.3 94.5567C549.07 92.0573 549.292 89.2014 547.18 87.4997C542.136 105.285 534.807 127.098 534.807 127.098ZM549.684 78.0638L549.622 78.3096C552.14 76.7494 554.146 75.1545 554.927 73.5757L554.958 73.523C557.008 66.7539 558.589 59.8515 559.691 52.8649C562.055 34.5167 558.798 18.7705 556.859 24.3731C554.921 29.9757 539.195 62.3124 527.437 86.2289C516.009 109.502 508.424 117.994 503.196 120.522C497.969 123.05 484.382 136.959 476.776 148.985C470.369 158.822 463.418 168.293 455.955 177.355C453.074 180.796 469.474 150.095 478.866 128.449C488.258 106.804 494.528 90.8809 502.462 61.0588C510.395 31.2367 511.934 30.2765 512.719 22.1486C512.958 19.5939 515.533 42.6125 511.888 72.4192C508.406 100.953 503.641 118.9 503.256 120.436C503.914 118.304 514.494 83.569 518.604 47.5607C522.424 13.8661 511.051 -1.64207 511.424 2.22021C511.796 6.08248 508.414 32.3535 497.834 70.4139C490.652 96.219 480.738 114.609 478.319 118.799C477.099 120.762 475.452 122.425 473.501 123.663C472.238 124.436 471.073 125.36 470.034 126.414C468.28 128.547 463.628 137.214 452.331 157.389C441.035 177.563 442.965 174.517 449.901 158.256C456.838 141.995 461.812 126.42 468.211 94.104C474.611 61.7884 475.822 30.6973 475.568 23.5675C475.313 16.4377 484.022 46.444 481.704 73.7613C480.239 90.5616 477.494 107.226 473.492 123.608C473.881 122.517 479.696 105.728 482.847 75.1241C486.07 43.4365 479.871 21.4908 479.871 21.4908C474.029 -0.289385 471.242 -1.46634 472.084 2.69698C472.925 6.86031 473.631 48.4322 470.359 67.6732C464.132 104.389 456.726 126.84 453.733 134.757C451.72 140.213 449.249 145.488 446.346 150.527C444.284 154.099 442.257 157.139 440.13 160.824C435.579 168.706 433.16 178.482 435.416 169.285C437.671 160.087 440.529 145.48 443.839 116.566C447.15 87.6511 443.686 68.7114 443.802 63.5335C443.918 58.3556 451.705 78.5956 451.155 104.191C450.803 119.726 449.2 135.207 446.36 150.485C446.622 149.631 450.925 135.617 451.934 111.925C452.993 87.4677 450.092 70.9125 450.092 70.9125C447.221 45.8646 436.304 35.8844 437.279 37.9545C440.373 47.9798 446.111 90.9297 439.368 131.879C432.626 172.829 425.981 186.967 426.452 184.637C432.654 151.393 428.729 133.704 428.711 136.99C428.694 140.275 428.25 151.885 423.306 178.078C418.362 204.271 415.267 218.279 411.773 228.821C408.279 239.363 402.261 250.186 395.376 263.975C388.49 277.763 378.968 302.157 377.4 312.304C375.832 322.451 374.465 335.086 368.261 346.213C362.058 357.341 354.955 381.635 352.748 387.685C350.292 394.426 351.081 393.374 348.713 399.302C348.533 403.217 347.502 412.398 345.155 415.524C342.808 418.65 334.626 423.893 329.158 424.454C323.69 425.015 319.256 423.228 315.723 421.62C312.19 420.013 306.478 417.167 300.866 415.123C295.254 413.078 289.302 410.526 286.281 409.877C283.26 409.228 279.632 408.882 277.632 408.169C273.113 406.416 268.497 404.922 263.808 403.694C258.406 402.434 251.215 403.317 249.897 403.319C248.58 403.322 246.073 403.121 243.07 403.206C240.067 403.291 236.351 404.802 234.985 404.888C232.326 404.916 229.668 404.771 227.028 404.453C222.553 404.06 209.193 402.365 204.818 401.155C200.442 399.945 198.789 400.408 198.458 400.98C198.127 401.553 198.64 402.944 202.081 406.086C205.522 409.228 208.897 412.101 213.641 416.589C218.385 421.076 222.379 425.14 223.299 426.766C224.218 428.392 224.859 432.59 226.905 436.183C228.95 439.775 233.108 444.024 236.998 448.46C240.887 452.896 243.67 454.724 250.718 459.396C257.767 464.069 261.17 469.138 267.546 472.538C273.25 475.59 283.368 484.918 285.914 496.205C286.204 497.493 286.389 498.802 286.467 500.121C287.192 513.169 283.486 524.634 276.234 535.508C268.981 546.382 254.408 563.218 249.841 570.779C245.275 578.341 233.629 597.59 226.985 602.797C220.342 608.004 212.312 616.43 197.514 635.326C182.716 654.222 178.275 662.349 175.41 666.04C172.546 669.732 161.583 681.167 131.99 705.085C102.396 729.003 99.111 731.316 92.821 735.893C86.531 740.471 96.5416 737.037 114.64 724.206C132.739 711.375 145.4 699.956 142.619 703.937C139.838 707.918 117.443 732.385 86.4779 757.008C55.5125 781.631 23.9185 797.633 16.6745 802.192C9.43053 806.751 10.5716 806.445 16.8069 806.156C23.0421 805.868 40.9232 804.778 68.0948 788.414C93.4949 773.117 116.302 750.163 119.143 747.192C119.223 747.124 119.297 747.049 119.363 746.967L119.389 746.922L47.4747 788.244C53.5601 784.282 63.0525 777.726 74.0675 770.029C91.573 757.79 115.848 738.055 125.972 727.654C136.097 717.252 141.659 712.666 139.593 715.844C137.527 719.022 126.783 732.985 124.292 736.882C122.372 740.081 120.732 743.441 119.389 746.922C118.684 748.665 117.991 750.475 117.302 752.278C115.168 758.079 102.178 775.115 71.4887 805.977C40.7999 836.838 1.51949 860.288 0.581613 861.495C-0.356266 862.702 18.9978 864.089 56.2651 841.186C92.5541 818.862 111.912 791.094 112.915 789.634C92.2819 812.616 64.563 831.407 51.9709 838.947C39.3787 846.487 23.7034 848.369 29.0914 844.919C34.4795 841.468 53.0702 828.62 80.1891 802.289C107.308 775.957 133.487 739.106 137.752 734.243C142.016 729.381 143.782 728.009 142.356 731.315C140.929 734.621 124.35 762.938 119.407 771.499C115.857 777.648 114.047 784.681 113.022 789.605C112.615 791.53 112.335 793.127 112.109 794.233C111.309 798.142 100.444 819.067 79.2533 843.988C58.0628 868.91 35.6149 889.709 30.3797 893.73C25.1445 897.751 21.6092 900.08 27.7658 899.997C33.9224 899.915 46.8688 898.879 74.0405 879.591C100.573 860.749 127.123 820.454 128.359 818.575C79.1878 878.333 46.9507 881.926 49.5979 880.299C52.2451 878.673 79.726 852.48 102.704 818.181C125.681 783.882 142.721 752.646 147.61 745.029C152.5 737.413 153.525 740.667 151.551 745.356C149.578 750.044 134.956 788.022 132.378 797.917C130.32 805.832 128.824 812.775 128.359 818.575C128.239 820.053 128.228 821.393 128.249 822.732C128.317 829.332 124.679 844.473 109.941 873.361C95.2016 902.248 75.5665 934.639 74.8312 935.912C74.3962 936.666 81.0722 935.788 92.0591 927.843C97.4828 923.67 96.372 913.534 96.3295 913.138C96.5384 913.489 100.78 920.831 102.828 918.849L102.931 918.758C108.154 913.762 113.032 908.417 117.532 902.762C142.087 872.187 152.492 844.264 152.93 843.191C153.237 851.657 154.848 861.379 151.114 877.469C146.383 897.847 134.947 942.487 134.506 947.045C134.065 951.603 139.021 951.842 158.177 925.816C162.659 919.711 166.738 913.32 170.389 906.683C171.592 904.303 170.276 900.318 168.17 896.359C163.615 902.049 158.754 907.487 153.611 912.65C149.607 916.417 145.772 918.082 146.164 915.977C146.555 913.872 179.585 756.196 180.499 753.83C181.413 751.464 183.068 751.294 183.411 753.311C183.754 755.327 183.324 772.501 183.149 776.389C182.974 780.277 182.491 781.234 185.226 778.412C187.96 775.59 190.128 773.958 188.568 776.905C187.007 779.852 183.594 785.99 183.53 787.058C183.466 788.126 181.267 850.408 184.209 873.156C187.152 895.904 183.444 929.422 183.75 937.054C184.047 944.389 188.821 945.569 202.84 924.263C205.278 920.476 199.263 908.132 199.263 908.132C194.348 911.423 190.003 911.989 189.678 908.757C189.194 904.027 197.917 755.978 198.683 751.066C199.45 746.153 201.269 745.525 202.459 749.538C203.649 753.551 211.547 799.928 214.983 831.392C218.42 862.856 223.537 904.774 224.742 912.694C225.947 920.614 228.752 921.811 232.124 920.252C235.496 918.692 244.932 909.501 249.147 901.836C253.361 894.171 252.479 890.356 251.468 892.455C248.681 897.648 240.963 899.583 236.594 896.447C232.225 893.312 230.305 890.546 228.109 861.858C225.913 833.171 217.89 760.296 218.197 755.118C218.504 749.94 221.369 748.911 223.787 754.015C226.206 759.119 242.369 804.32 248.155 831.785C253.94 859.249 255.748 877.193 256.307 885.152C256.867 893.111 261.465 896.58 264.005 896.81C266.544 897.04 278.53 893.44 282.656 887.373C286.782 881.305 285.296 881.06 282.789 882.496C280.282 883.932 276.147 886.499 271.898 881.363C267.65 876.227 267.075 864.361 262.485 840.882C257.895 817.403 242.449 769.532 241.05 760.887C239.651 752.242 239.864 751.159 242.281 753.76C244.698 756.361 250.918 763.078 258.539 777.374C266.16 791.671 284.098 835.225 290.305 849.117C296.511 863.009 302.792 871.779 307.121 872.842C311.451 873.905 316.269 872.346 322.523 865.447C328.777 858.548 325.023 855.758 324.828 856.67C324.633 857.582 321.534 863.228 315.829 862.406C310.124 861.584 305.872 855.01 301.312 844.339C296.752 833.668 269.712 775.164 267.085 767.88C264.458 760.596 266.961 760.594 269.495 763.705C272.03 766.816 285.335 782.335 294.186 793.423C303.036 804.511 325.852 836.031 330.164 840.379C334.476 844.728 339.567 847.657 347.318 842.446C355.068 837.235 359.326 830.208 357.562 823.623C355.797 817.038 350.871 812.727 350.671 815.928C350.471 819.128 349.555 822.507 345.263 826.008C340.972 829.508 335.996 828.485 332.183 824.022C328.369 819.559 297.717 777.317 294.313 771.432C290.908 765.548 297.093 762.317 299.133 763.083C301.173 763.849 301.609 763.076 320.315 779.23C339.02 795.385 357.335 810.511 362.653 814.857C367.971 819.204 378.979 824.082 386.11 814.585C390.52 808.623 394.087 802.081 396.711 795.145C396.711 795.145 408.667 797.305 414.778 788.495C420.889 779.685 422.056 765.9 422.056 765.9C422.056 765.9 435.64 768.789 444.511 755.564C453.382 742.339 448.802 724.935 448.802 724.935C448.802 724.935 466.021 731.169 473.163 713.439C480.305 695.709 465.06 683.2 465.06 683.2C465.06 683.2 466.82 682.92 473.119 682.608C479.418 682.296 489.611 676.666 490.346 666.43C491.081 656.194 482.347 650.7 476.773 648.416C471.199 646.132 469.111 645.137 469.839 645.146C473.141 644.777 476.417 644.205 479.649 643.435C484.423 642.353 490.013 635.925 490.013 635.925C490.013 635.925 500.479 646.74 512.404 659.342C524.329 671.944 536.692 685.422 550.266 698.945C563.839 712.469 576.12 725.708 590.218 739.766C604.317 753.824 614.734 760.772 621.344 764.167C627.955 767.561 631.936 765.609 632.739 766.184C633.543 766.759 647.686 775.537 656.634 781.426C665.582 787.316 679.478 796.695 685.746 799.691C692.014 802.687 696.736 804.027 699.902 802.669C701.21 802.107 702.324 801.172 703.105 799.98C703.885 798.789 704.298 797.395 704.292 795.97C704.27 793.677 702.157 791.211 703.293 791.766C704.429 792.322 707.921 794.539 711.311 796.396C714.7 798.252 717.204 800.11 720.925 801.323C724.645 802.537 725.739 804.314 731.046 805.72C736.353 807.126 738.491 803.789 738.962 803.338C739.434 802.886 739.789 802.81 744.982 805.668C750.175 808.525 757.498 812.582 762.12 813.382C766.742 814.182 767.896 814.707 770.509 815.211C773.122 815.715 774.702 817.12 773.606 815.241C772.511 813.363 771.536 811.866 771.296 811.516C771.056 811.166 770.382 810.576 774.92 811.538C779.459 812.501 781.315 810.347 780.702 809.059C780.089 807.771 775.914 804.074 774.11 802.882C772.307 801.69 769.226 799.751 770.758 797.36C772.289 794.968 774.766 795.012 773.581 790.59C772.396 786.168 760.521 775.725 758.655 773.562C756.789 771.4 755.292 770.686 757.757 771.637C760.222 772.588 765.389 775.421 781.907 782.938C798.426 790.456 813.472 796.138 817.035 796.527C820.598 796.917 822.165 798.083 822.1 796.648C822.041 794.618 822.256 792.589 822.738 790.617C823.17 789.329 829.64 784.493 826.734 779.45C823.828 774.406 817.931 769.776 809.803 764.781C801.674 759.787 791.821 749.808 778.811 741.071C765.8 732.333 702.386 686.849 702.386 686.849C698.42 684.007 709.637 688.664 728.865 696.5C748.094 704.336 779.613 710.949 797.53 713.869C815.447 716.788 822.921 713.085 825.492 708.631C828.063 704.178 828.453 695.792 817.354 688.791C806.254 681.79 772.167 664.189 772.167 664.189C772.167 664.189 777.079 657.229 768.019 650.803C758.959 644.376 728.724 626.317 706.9 613.717C685.077 601.118 677.734 594.798 631.711 578.344C585.687 561.891 534.853 547.07 534.853 547.07C545.093 539.619 540.014 526.298 540.014 526.298C540.014 526.298 554.765 530.664 565.554 517.04C576.344 503.415 562.717 495.206 562.717 495.206C562.717 495.206 580.674 497.535 588.804 480.878C596.934 464.221 589.367 456.808 589.367 456.808C589.367 456.808 602.612 454.96 607.352 439.581C612.091 424.202 598.815 414.758 598.815 414.758C598.815 414.758 614.08 411.987 617.811 397.814C621.543 383.641 615.115 371.611 615.115 371.611C615.115 371.611 625.274 361.742 625.167 350.094C625.059 338.447 614.23 329.01 614.23 329.01C614.23 329.01 622.943 313.031 624.747 301.363C626.55 289.694 613.555 286.602 603.609 286.305C593.662 286.009 557.805 284.769 541.228 282.974C524.651 281.18 521.037 280.651 519.289 279.642C517.541 278.633 516.757 278.18 520.86 276.922C524.962 275.663 594.391 259.2 607.54 257.97C620.689 256.74 628.021 263.827 626.059 273.073C626.059 273.073 630.666 265.093 629.166 256.449C627.665 247.806 622.696 245.189 614.505 245.905C606.314 246.622 550.196 258.009 532.018 260.275C513.84 262.54 504.141 263.642 502.669 263.043C501.196 262.444 498.508 258.571 504.009 255.779C509.51 252.986 552.188 238.461 572.555 230.507C592.922 222.553 604.785 213.316 612.89 214.107C620.994 214.897 621.854 229.139 621.854 229.139C621.854 229.139 625.459 219.294 624.979 208.899C624.5 198.504 616.697 197.627 609.802 200.137C602.908 202.647 575.923 215.572 550.484 226.325C525.044 237.078 496.416 241.8 491.842 242.535C487.268 243.27 486.567 239.489 488.688 238.112C490.81 236.734 540.024 211.203 561.984 197.426C583.944 183.65 595.668 172.775 602.276 171.667C608.884 170.559 616.334 180.557 615.871 184.962C615.871 184.962 621.145 173.478 621.675 161.596C622.205 149.715 617.673 149.942 610.413 153.537C607.673 154.889 601.257 158.71 593.143 163.661C579.806 171.796 561.905 182.962 548.464 191.188C526.839 204.384 504.705 212.615 493.565 218.893C482.425 225.171 481.381 225.604 480.157 225.932C478.933 226.26 475.462 226.597 479.471 222.943C483.479 219.29 520.949 188.535 541.138 172.43C561.328 156.325 585.891 134.456 591.7 129.772C597.509 125.088 598.441 149.961 593.147 163.654C593.377 163.395 599.753 156.094 606.844 139.409C606.141 137.406 597.481 135.491 597.092 135.417C597.642 135.403 608.66 135.062 610.553 130.026C618.294 108.613 616.913 103.556 610.336 108.369C603.6 113.302 589.635 128.057 573.254 139.358C569.765 141.764 566.725 143.706 563.777 145.331C553.177 151.509 545.477 154.247 530.803 165.167C512.158 179.049 477.886 203.36 475.034 205.602C472.183 207.844 470.788 207.562 474.409 202.649C478.029 197.736 524.352 150.289 542.641 128.948C560.931 107.607 576.338 87.6554 578.202 85.7674C580.065 83.8794 570.767 129.17 563.777 145.331C563.777 145.331 579.315 121.586 588.031 97.0389L588.85 94.6984C588.49 92.3807 583.473 92.0561 583.019 92.0249C583.453 91.934 589.22 90.752 591.348 86.7864C596.452 69.2459 595.436 60.8424 593.131 62.1543C590.423 63.6953 573.312 88.8421 557.655 106.981C541.998 125.12 539.904 124.413 534.812 127.09C529.72 129.767 504.079 154.39 491.602 166.116C479.125 177.842 467.484 189.025 466.517 189.813C465.55 190.601 465.972 188.494 468.343 184.909C470.714 181.325 496.427 143.019 511.439 119.263C526.451 95.5063 547.245 55.8876 549.418 49.878C551.592 43.8685 553.296 63.6109 549.684 78.0638ZM167.175 751.03C165.925 756.136 154.081 826.282 152.957 836.565C152.744 838.745 152.691 840.937 152.798 843.124C148.934 850.217 139.954 863.299 126.334 881.409C112.713 899.518 89.6743 917.564 92.4109 912.825C95.1475 908.085 105.502 891.004 120.33 859.003C135.158 827.002 154.524 772.854 159.664 761.011C164.803 749.168 168.417 745.92 167.167 751.026L167.175 751.03ZM369.206 776.15C369.861 777.382 368.14 781.181 364.866 787.339C361.592 793.497 359.073 795.459 353.629 788.547C348.184 781.636 349.229 778.974 351.003 773.517C352.776 768.061 352.429 764.504 353.562 765.239C353.584 765.252 368.536 774.909 369.199 776.146L369.206 776.15ZM390.857 750.831C392.456 755.18 387.181 760.173 383.414 759.877C379.646 759.581 377.212 752.538 376.862 749.594C376.513 746.649 376.628 744.133 377.484 744.306C377.461 744.293 389.243 746.473 390.834 750.818L390.857 750.831ZM580.464 380.481C582.836 382.655 581.522 391.562 579.539 393.24C577.555 394.918 573.249 390.211 568.554 387.902C563.858 385.593 565.241 384.573 566.128 384.081C567.015 383.588 578.069 378.295 580.442 380.468L580.464 380.481ZM591.34 343.858C593.944 347.371 595.789 349.048 596.582 352.913C597.375 356.777 592.379 359.147 584.655 358.918C576.93 358.688 570.297 352.044 570.859 349.747C571.874 345.309 576.7 342.067 579.154 341.645C581.608 341.223 588.714 340.332 591.295 343.832L591.34 343.858ZM598.815 300.508C609.187 301.965 611.52 304.608 606.447 316.248C601.374 327.888 595.037 330.388 590.769 328.245C586.5 326.102 575.284 322.54 561.429 316.812C547.575 311.085 525.767 301.297 543.174 300.766C543.151 300.753 588.424 299.05 598.793 300.495L598.815 300.508ZM206.044 901.868C204.097 904.275 201.811 906.387 199.259 908.139C201.482 909.732 203.595 911.472 205.585 913.349C207.236 915.136 209.132 913.87 210.146 912.114L210.333 911.79C220.062 893.564 220.877 882.058 220.877 882.058C220.877 882.058 212.784 893.623 206.044 901.868Z" fill="black"/>
<defs>
<linearGradient id="paint0_linear_1_32" x1="458.138" y1="738.487" x2="218.12" y2="504.545" gradientUnits="userSpaceOnUse">
<stop offset="0.01" stop-color="#5A5A5A" stop-opacity="0"/>
<stop offset="0.1" stop-color="#575757" stop-opacity="0.11"/>
<stop offset="0.69" stop-color="#464646" stop-opacity="0.75"/>
<stop offset="1" stop-color="#404040"/>
</linearGradient>
<linearGradient id="paint1_linear_1_32" x1="1052.79" y1="548.047" x2="194.604" y2="481.534" gradientUnits="userSpaceOnUse">
<stop offset="0.01" stop-color="#5A5A5A" stop-opacity="0"/>
<stop offset="0.1" stop-color="#575757" stop-opacity="0.11"/>
<stop offset="0.69" stop-color="#464646" stop-opacity="0.75"/>
<stop offset="1" stop-color="#404040"/>
</linearGradient>
<linearGradient id="paint2_linear_1_32" x1="1016.95" y1="580.096" x2="239.417" y2="445.193" gradientUnits="userSpaceOnUse">
<stop offset="0.01" stop-color="#5A5A5A" stop-opacity="0"/>
<stop offset="0.1" stop-color="#575757" stop-opacity="0.11"/>
<stop offset="0.69" stop-color="#464646" stop-opacity="0.75"/>
<stop offset="1" stop-color="#404040"/>
</linearGradient>
<linearGradient id="paint3_linear_1_32" x1="289.686" y1="831.002" x2="564.567" y2="296.813" gradientUnits="userSpaceOnUse">
<stop offset="0.01" stop-color="#5A5A5A" stop-opacity="0"/>
<stop offset="0.1" stop-color="#575757" stop-opacity="0.11"/>
<stop offset="0.69" stop-color="#464646" stop-opacity="0.75"/>
<stop offset="1" stop-color="#404040"/>
</linearGradient>
<linearGradient id="paint4_linear_1_32" x1="116.321" y1="1108.95" x2="522.42" y2="158.777" gradientUnits="userSpaceOnUse">
<stop offset="0.01" stop-color="#5A5A5A" stop-opacity="0"/>
<stop offset="0.1" stop-color="#575757" stop-opacity="0.11"/>
<stop offset="0.69" stop-color="#464646" stop-opacity="0.75"/>
<stop offset="1" stop-color="#404040"/>
</linearGradient>
<linearGradient id="paint5_linear_1_32" x1="-0.146523" y1="475.098" x2="826.78" y2="475.098" gradientUnits="userSpaceOnUse">
<stop offset="0.01" stop-color="#5A5A5A" stop-opacity="0"/>
<stop offset="0.1" stop-color="#575757" stop-opacity="0.11"/>
<stop offset="0.69" stop-color="#464646" stop-opacity="0.75"/>
<stop offset="1" stop-color="#404040"/>
</linearGradient>
<linearGradient id="paint6_linear_1_32" x1="805.951" y1="541.428" x2="384.272" y2="225.796" gradientUnits="userSpaceOnUse">
<stop offset="0.01" stop-color="#5A5A5A" stop-opacity="0"/>
<stop offset="0.1" stop-color="#575757" stop-opacity="0.11"/>
<stop offset="0.69" stop-color="#464646" stop-opacity="0.75"/>
<stop offset="1" stop-color="#404040"/>
</linearGradient>
<linearGradient id="paint7_linear_1_32" x1="639.403" y1="589.307" x2="420.228" y2="366.517" gradientUnits="userSpaceOnUse">
<stop offset="0.01" stop-color="#5A5A5A" stop-opacity="0"/>
<stop offset="0.1" stop-color="#575757" stop-opacity="0.11"/>
<stop offset="0.69" stop-color="#464646" stop-opacity="0.75"/>
<stop offset="1" stop-color="#404040"/>
</linearGradient>
<linearGradient id="paint8_linear_1_32" x1="597.044" y1="618.29" x2="382.281" y2="434.557" gradientUnits="userSpaceOnUse">
<stop offset="0.01" stop-color="#5A5A5A" stop-opacity="0"/>
<stop offset="0.1" stop-color="#575757" stop-opacity="0.11"/>
<stop offset="0.69" stop-color="#464646" stop-opacity="0.75"/>
<stop offset="1" stop-color="#404040"/>
</linearGradient>
<linearGradient id="paint9_linear_1_32" x1="508.967" y1="635.406" x2="290.708" y2="447.255" gradientUnits="userSpaceOnUse">
<stop offset="0.01" stop-color="#5A5A5A" stop-opacity="0"/>
<stop offset="0.1" stop-color="#575757" stop-opacity="0.11"/>
<stop offset="0.69" stop-color="#464646" stop-opacity="0.75"/>
<stop offset="1" stop-color="#404040"/>
</linearGradient>
<linearGradient id="paint10_linear_1_32" x1="483.14" y1="680.829" x2="303.064" y2="527.735" gradientUnits="userSpaceOnUse">
<stop offset="0.01" stop-color="#5A5A5A" stop-opacity="0"/>
<stop offset="0.1" stop-color="#575757" stop-opacity="0.11"/>
<stop offset="0.69" stop-color="#464646" stop-opacity="0.75"/>
<stop offset="1" stop-color="#404040"/>
</linearGradient>
<linearGradient id="paint11_linear_1_32" x1="439.168" y1="1081.35" x2="-13.8946" y2="584.828" gradientUnits="userSpaceOnUse">
<stop offset="0.01" stop-color="#5A5A5A" stop-opacity="0"/>
<stop offset="0.1" stop-color="#575757" stop-opacity="0.11"/>
<stop offset="0.69" stop-color="#464646" stop-opacity="0.75"/>
<stop offset="1" stop-color="#404040"/>
</linearGradient>
<linearGradient id="paint12_linear_1_32" x1="410.279" y1="1037.96" x2="540.71" y2="213.181" gradientUnits="userSpaceOnUse">
<stop offset="0.01" stop-color="#5A5A5A" stop-opacity="0"/>
<stop offset="0.1" stop-color="#575757" stop-opacity="0.11"/>
<stop offset="0.69" stop-color="#464646" stop-opacity="0.75"/>
<stop offset="1" stop-color="#404040"/>
</linearGradient>
<linearGradient id="paint13_linear_1_32" x1="395.832" y1="910.543" x2="600.647" y2="528.487" gradientUnits="userSpaceOnUse">
<stop offset="0.01" stop-color="#5A5A5A" stop-opacity="0"/>
<stop offset="0.1" stop-color="#575757" stop-opacity="0.11"/>
<stop offset="0.69" stop-color="#464646" stop-opacity="0.75"/>
<stop offset="1" stop-color="#404040"/>
</linearGradient>
<linearGradient id="paint14_linear_1_32" x1="173.18" y1="625.538" x2="486.019" y2="374.28" gradientUnits="userSpaceOnUse">
<stop offset="0.01" stop-color="#5A5A5A" stop-opacity="0"/>
<stop offset="0.1" stop-color="#575757" stop-opacity="0.11"/>
<stop offset="0.69" stop-color="#464646" stop-opacity="0.75"/>
<stop offset="1" stop-color="#404040"/>
</linearGradient>
<linearGradient id="paint15_linear_1_32" x1="284.646" y1="590.79" x2="508.916" y2="395.528" gradientUnits="userSpaceOnUse">
<stop offset="0.01" stop-color="#5A5A5A" stop-opacity="0"/>
<stop offset="0.1" stop-color="#575757" stop-opacity="0.11"/>
<stop offset="0.69" stop-color="#464646" stop-opacity="0.75"/>
<stop offset="1" stop-color="#404040"/>
</linearGradient>
<linearGradient id="paint16_linear_1_32" x1="317.859" y1="657.261" x2="548.154" y2="425.508" gradientUnits="userSpaceOnUse">
<stop offset="0.01" stop-color="#5A5A5A" stop-opacity="0"/>
<stop offset="0.1" stop-color="#575757" stop-opacity="0.11"/>
<stop offset="0.69" stop-color="#464646" stop-opacity="0.75"/>
<stop offset="1" stop-color="#404040"/>
</linearGradient>
<linearGradient id="paint17_linear_1_32" x1="351.983" y1="723.981" x2="632.433" y2="474.076" gradientUnits="userSpaceOnUse">
<stop offset="0.01" stop-color="#5A5A5A" stop-opacity="0"/>
<stop offset="0.1" stop-color="#575757" stop-opacity="0.11"/>
<stop offset="0.69" stop-color="#464646" stop-opacity="0.75"/>
<stop offset="1" stop-color="#404040"/>
</linearGradient>
<linearGradient id="paint18_linear_1_32" x1="375.764" y1="913.125" x2="764.69" y2="481.787" gradientUnits="userSpaceOnUse">
<stop offset="0.01" stop-color="#5A5A5A" stop-opacity="0"/>
<stop offset="0.1" stop-color="#575757" stop-opacity="0.11"/>
<stop offset="0.69" stop-color="#464646" stop-opacity="0.75"/>
<stop offset="1" stop-color="#404040"/>
</linearGradient>
<linearGradient id="paint19_linear_1_32" x1="401.129" y1="1107.04" x2="839.54" y2="233.709" gradientUnits="userSpaceOnUse">
<stop offset="0.01" stop-color="#5A5A5A" stop-opacity="0"/>
<stop offset="0.1" stop-color="#575757" stop-opacity="0.11"/>
<stop offset="0.69" stop-color="#464646" stop-opacity="0.75"/>
<stop offset="1" stop-color="#404040"/>
</linearGradient>
<linearGradient id="paint20_linear_1_32" x1="419.546" y1="1046.1" x2="300.641" y2="304.473" gradientUnits="userSpaceOnUse">
<stop offset="0.01" stop-color="#5A5A5A" stop-opacity="0"/>
<stop offset="0.1" stop-color="#575757" stop-opacity="0.11"/>
<stop offset="0.69" stop-color="#464646" stop-opacity="0.75"/>
<stop offset="1" stop-color="#404040"/>
</linearGradient>
<linearGradient id="paint21_linear_1_32" x1="446.386" y1="1013.82" x2="184.624" y2="532.143" gradientUnits="userSpaceOnUse">
<stop offset="0.01" stop-color="#5A5A5A" stop-opacity="0"/>
<stop offset="0.1" stop-color="#575757" stop-opacity="0.11"/>
<stop offset="0.69" stop-color="#464646" stop-opacity="0.75"/>
<stop offset="1" stop-color="#404040"/>
</linearGradient>
<linearGradient id="paint22_linear_1_32" x1="467.746" y1="971.058" x2="142.752" y2="431.653" gradientUnits="userSpaceOnUse">
<stop offset="0.01" stop-color="#5A5A5A" stop-opacity="0"/>
<stop offset="0.1" stop-color="#575757" stop-opacity="0.11"/>
<stop offset="0.69" stop-color="#464646" stop-opacity="0.75"/>
<stop offset="1" stop-color="#404040"/>
</linearGradient>
</defs>
</svg>
