<svg width="40" height="40" viewBox="0 0 40 40" fill="none" xmlns="http://www.w3.org/2000/svg">
<path fill-rule="evenodd" clip-rule="evenodd" d="M20 40C31.0457 40 40 31.0457 40 20C40 8.9543 31.0457 0 20 0C8.9543 0 0 8.9543 0 20C0 31.0457 8.9543 40 20 40ZM15.0528 8.0725C16.3328 8.01425 16.7418 8 20.0009 8H19.9974C23.2574 8 23.6649 8.01425 24.9449 8.0725C26.2224 8.131 27.0949 8.33325 27.86 8.63C28.65 8.93625 29.3175 9.34625 29.985 10.0138C30.6525 10.6807 31.0625 11.3502 31.37 12.1395C31.665 12.9025 31.8675 13.7745 31.9275 15.052C31.985 16.332 32 16.741 32 20C32 23.259 31.985 23.667 31.9275 24.947C31.8675 26.224 31.665 27.0963 31.37 27.8595C31.0625 28.6485 30.6525 29.318 29.985 29.985C29.3182 30.6525 28.6497 31.0635 27.8607 31.37C27.0972 31.6667 26.2242 31.869 24.9467 31.9275C23.6667 31.9858 23.2589 32 19.9996 32C16.7408 32 16.3321 31.9858 15.0521 31.9275C13.7748 31.869 12.9026 31.6667 12.139 31.37C11.3503 31.0635 10.6808 30.6525 10.014 29.985C9.34676 29.318 8.93676 28.6485 8.63001 27.8592C8.3335 27.0962 8.13125 26.2243 8.0725 24.9468C8.0145 23.6667 8 23.259 8 20C8 16.741 8.015 16.3318 8.072 15.0518C8.1295 13.7747 8.332 12.9025 8.62951 12.1392C8.93701 11.3503 9.34701 10.6807 10.0145 10.0138C10.6815 9.3465 11.351 8.9365 12.1403 8.63C12.9033 8.33325 13.7753 8.131 15.0528 8.0725ZM19.6009 10.1624C19.3583 10.1623 19.1334 10.1622 18.9244 10.1625V10.1595C16.6878 10.162 16.2588 10.177 15.1518 10.227C13.9818 10.2808 13.3466 10.4757 12.9236 10.6407C12.3635 10.8588 11.9635 11.1188 11.5435 11.5387C11.1235 11.9587 10.863 12.3587 10.6455 12.9187C10.4813 13.3418 10.2858 13.9768 10.2323 15.1468C10.1748 16.4118 10.1633 16.7897 10.1633 19.9942C10.1633 23.1987 10.1748 23.5788 10.2323 24.8438C10.2855 26.0138 10.4813 26.6488 10.6455 27.0713C10.8635 27.6315 11.1235 28.0305 11.5435 28.4505C11.9635 28.8705 12.3635 29.1305 12.9236 29.348C13.3468 29.5122 13.9818 29.7077 15.1518 29.7617C16.4168 29.8193 16.7966 29.8318 20.0009 29.8318C23.2049 29.8318 23.5849 29.8193 24.8499 29.7617C26.0199 29.7083 26.6554 29.5133 27.0779 29.3482C27.6382 29.1307 28.037 28.8708 28.457 28.4508C28.877 28.031 29.1375 27.6322 29.355 27.0723C29.5192 26.6497 29.7147 26.0147 29.7682 24.8447C29.8257 23.5798 29.8382 23.1997 29.8382 19.9972C29.8382 16.7948 29.8257 16.4147 29.7682 15.1497C29.715 13.9797 29.5192 13.3447 29.355 12.9222C29.137 12.3622 28.877 11.9622 28.457 11.5422C28.0372 11.1223 27.638 10.8623 27.0779 10.6448C26.6549 10.4805 26.0199 10.285 24.8499 10.2315C23.5847 10.174 23.2049 10.1625 20.0009 10.1625C19.8624 10.1625 19.7292 10.1624 19.6009 10.1624ZM25.6064 12.3977C25.8432 12.2395 26.1216 12.155 26.4064 12.155V12.1545C27.2014 12.1545 27.8465 12.7995 27.8465 13.5945C27.8466 13.8793 27.7622 14.1578 27.604 14.3947C27.4458 14.6315 27.221 14.8162 26.9579 14.9252C26.6947 15.0343 26.4052 15.0629 26.1258 15.0074C25.8464 14.9519 25.5898 14.8148 25.3884 14.6134C25.1869 14.412 25.0497 14.1555 24.9941 13.8761C24.9385 13.5968 24.967 13.3072 25.076 13.0441C25.185 12.7809 25.3695 12.556 25.6064 12.3977ZM13.8383 20C13.8383 16.5968 16.5976 13.8375 20.0009 13.8375C23.4042 13.8375 26.1627 16.5968 26.1627 20C26.1627 23.4032 23.4042 26.1612 20.0009 26.1612C16.5976 26.1612 13.8383 23.4032 13.8383 20ZM24.0009 20C24.0009 17.7908 22.2099 16 20.0009 16C17.7916 16 16.0008 17.7908 16.0008 20C16.0008 22.209 17.7916 24 20.0009 24C22.2099 24 24.0009 22.209 24.0009 20Z" fill="#0FD998"/>
</svg>
