<svg width="173" height="20" viewBox="0 0 173 20" fill="none" xmlns="http://www.w3.org/2000/svg">
<path fill-rule="evenodd" clip-rule="evenodd" d="M10.3712 17.9639L0 0H18.3386L23.0659 8.18899L17.4219 17.9639C15.8548 20.6787 11.9383 20.6787 10.3712 17.9639ZM23.0659 8.18899L27.7931 0H46.1317L35.7606 17.9616C34.1935 20.6763 30.2769 20.6763 28.7098 17.9616C25.3988 12.3342 31.2879 4.87334 37.6222 8.42936C35.2398 3.14127 27.2912 2.62519 23.0659 8.18899Z" fill="#0FD998"/>
<path fill-rule="evenodd" clip-rule="evenodd" d="M53.9604 0H57.818V5.01473C57.818 8.1018 63.6033 15.4307 63.6033 15.4307C63.6033 15.4307 69.3887 8.1018 69.3887 5.01473V0H73.2463V5.01473C73.2463 8.1018 79.0316 15.4307 79.0316 15.4307C79.0316 15.4307 84.817 8.1018 84.817 5.01473V0H88.6746V5.01473C88.6746 10.0295 80.9593 19.286 80.9593 19.286H77.1016C77.1016 19.286 73.5904 15.0819 71.3163 10.8378C69.0399 15.0795 65.531 19.286 65.531 19.286H61.6733C61.6733 19.286 53.958 10.0295 53.958 5.01473L53.9604 0ZM107.19 0L108.347 3.85766H99.8612C97.9335 3.85766 96.0035 5.78768 96.0035 7.71533V19.2883H92.1458V0H96.0035V3.54896C96.159 1.5836 97.818 0 99.8635 0H107.19ZM109.891 13.503C109.891 16.7032 112.473 19.2883 115.676 19.2883L123.391 19.286C126.591 19.286 129.177 16.7032 129.177 13.5006V5.78532C129.177 2.58513 126.594 0 123.391 0H115.676C112.476 0 109.891 2.58513 109.891 5.78767V13.503ZM125.319 13.5006C125.319 14.5799 124.471 15.4307 123.391 15.4307H115.676C114.597 15.4307 113.748 14.5823 113.748 13.503V5.78767C113.748 4.70838 114.597 3.86002 115.676 3.86002H123.391C124.471 3.86002 125.319 4.70838 125.319 5.78767V13.5006ZM137.662 3.85766C136.583 3.85766 135.732 4.70602 135.732 5.78532V19.286H131.875V5.78767C131.877 2.58513 134.46 0 137.662 0H145.378C148.58 0 151.163 2.58513 151.163 5.78532V19.286H147.305V5.78767C147.305 4.70838 146.457 3.86002 145.378 3.86002L137.662 3.85766ZM155.405 0L154.248 3.85766L166.978 3.86002C168.057 3.86002 168.906 4.70838 168.906 5.78767V7.71533H159.263C156.063 7.71533 153.478 10.3005 153.478 13.5006C153.478 16.7008 156.063 19.286 159.263 19.286H172.763V5.78532C172.763 2.58513 170.181 0 166.978 0H155.405ZM159.263 11.5753H168.906V15.4307H159.263C158.184 15.4307 157.335 14.5823 157.335 13.503C157.335 12.4237 158.184 11.5753 159.263 11.5753Z" fill="#F6F6F6"/>
</svg>
