<svg width="432" height="90" viewBox="0 0 432 90" fill="none" xmlns="http://www.w3.org/2000/svg">
<path fill-rule="evenodd" clip-rule="evenodd" d="M45.2921 62.7939L22 22.375H63.1858L73.8025 40.8002L61.1271 62.7939C57.6076 68.902 48.8115 68.902 45.2921 62.7939ZM73.8025 40.8002L84.4192 22.375H125.605L102.313 62.7886C98.7934 68.8967 89.9974 68.8967 86.4779 62.7886C79.042 50.1269 92.2679 33.34 106.494 41.3411C101.143 29.4429 83.2919 28.2817 73.8025 40.8002Z" fill="#0E212D"/>
<path fill-rule="evenodd" clip-rule="evenodd" d="M143.186 22.375H151.85V33.6581C151.85 40.6041 164.843 57.094 164.843 57.094C164.843 57.094 177.836 40.6041 177.836 33.6581V22.375H186.5V33.6581C186.5 40.6041 199.493 57.094 199.493 57.094C199.493 57.094 212.486 40.6041 212.486 33.6581V22.375H221.15V33.6581C221.15 44.9413 203.822 65.7684 203.822 65.7684H195.158C195.158 65.7684 187.273 56.3092 182.165 46.7599C177.053 56.3039 169.172 65.7684 169.172 65.7684H160.509C160.509 65.7684 143.181 44.9413 143.181 33.6581L143.186 22.375ZM262.732 22.375L265.331 31.0547H246.273C241.944 31.0547 237.609 35.3973 237.609 39.7345V65.7737H228.945V22.375H237.609V30.3602C237.958 25.9381 241.684 22.375 246.278 22.375H262.732ZM268.797 52.7568C268.797 59.9572 274.598 65.7737 281.79 65.7737L299.118 65.7684C306.305 65.7684 312.111 59.9572 312.111 52.7515V35.392C312.111 28.1915 306.31 22.375 299.118 22.375H281.79C274.603 22.375 268.797 28.1915 268.797 35.3973V52.7568ZM303.447 52.7515C303.447 55.1799 301.542 57.094 299.118 57.094H281.79C279.367 57.094 277.461 55.1852 277.461 52.7568V35.3973C277.461 32.9688 279.367 31.06 281.79 31.06H299.118C301.542 31.06 303.447 32.9688 303.447 35.3973V52.7515ZM331.169 31.0547C328.745 31.0547 326.834 32.9635 326.834 35.392V65.7684H318.171V35.3973C318.176 28.1915 323.977 22.375 331.169 22.375H348.496C355.689 22.375 361.489 28.1915 361.489 35.392V65.7684H352.826V35.3973C352.826 32.9688 350.92 31.06 348.496 31.06L331.169 31.0547ZM371.016 22.375L368.417 31.0547L397.007 31.06C399.431 31.06 401.336 32.9688 401.336 35.3973V39.7345H379.68C372.492 39.7345 366.687 45.551 366.687 52.7515C366.687 59.9519 372.492 65.7684 379.68 65.7684H410V35.392C410 28.1915 404.199 22.375 397.007 22.375H371.016ZM379.68 48.4195H401.336V57.094H379.68C377.256 57.094 375.35 55.1852 375.35 52.7568C375.35 50.3283 377.256 48.4195 379.68 48.4195Z" fill="#0E212D"/>
</svg>
