<svg width="388" height="46" viewBox="0 0 388 46" fill="none" xmlns="http://www.w3.org/2000/svg">
<path fill-rule="evenodd" clip-rule="evenodd" d="M23.2921 40.7939L0 0.375H41.1858L51.8025 18.8002L39.1271 40.7939C35.6076 46.902 26.8115 46.902 23.2921 40.7939ZM51.8025 18.8002L62.4192 0.375H103.605L80.3129 40.7886C76.7934 46.8967 67.9974 46.8967 64.4779 40.7886C57.042 28.1269 70.2679 11.34 84.4939 19.3411C79.1433 7.44287 61.2919 6.28168 51.8025 18.8002Z" fill="#0E212D"/>
<path fill-rule="evenodd" clip-rule="evenodd" d="M121.186 0.375H129.85V11.6581C129.85 18.6041 142.843 35.094 142.843 35.094C142.843 35.094 155.836 18.6041 155.836 11.6581V0.375H164.5V11.6581C164.5 18.6041 177.493 35.094 177.493 35.094C177.493 35.094 190.486 18.6041 190.486 11.6581V0.375H199.15V11.6581C199.15 22.9413 181.822 43.7684 181.822 43.7684H173.158C173.158 43.7684 165.273 34.3092 160.165 24.7599C155.053 34.3039 147.172 43.7684 147.172 43.7684H138.509C138.509 43.7684 121.181 22.9413 121.181 11.6581L121.186 0.375ZM240.732 0.375L243.331 9.05475H224.273C219.944 9.05475 215.609 13.3973 215.609 17.7345V43.7737H206.945V0.375H215.609V8.36015C215.958 3.9381 219.684 0.375 224.278 0.375H240.732ZM246.797 30.7568C246.797 37.9572 252.598 43.7737 259.79 43.7737L277.118 43.7684C284.305 43.7684 290.111 37.9572 290.111 30.7515V13.392C290.111 6.19154 284.31 0.375 277.118 0.375H259.79C252.603 0.375 246.797 6.19154 246.797 13.3973V30.7568ZM281.447 30.7515C281.447 33.1799 279.542 35.094 277.118 35.094H259.79C257.367 35.094 255.461 33.1852 255.461 30.7568V13.3973C255.461 10.9688 257.367 9.06005 259.79 9.06005H277.118C279.542 9.06005 281.447 10.9688 281.447 13.3973V30.7515ZM309.169 9.05475C306.745 9.05475 304.834 10.9635 304.834 13.392V43.7684H296.171V13.3973C296.176 6.19154 301.977 0.375 309.169 0.375H326.496C333.689 0.375 339.489 6.19154 339.489 13.392V43.7684H330.826V13.3973C330.826 10.9688 328.92 9.06005 326.496 9.06005L309.169 9.05475ZM349.016 0.375L346.417 9.05475L375.007 9.06005C377.431 9.06005 379.336 10.9688 379.336 13.3973V17.7345H357.68C350.492 17.7345 344.687 23.551 344.687 30.7515C344.687 37.9519 350.492 43.7684 357.68 43.7684H388V13.392C388 6.19154 382.199 0.375 375.007 0.375H349.016ZM357.68 26.4195H379.336V35.094H357.68C355.256 35.094 353.35 33.1852 353.35 30.7568C353.35 28.3283 355.256 26.4195 357.68 26.4195Z" fill="#0E212D"/>
</svg>
