<svg width="217" height="64" viewBox="0 0 217 64" fill="none" xmlns="http://www.w3.org/2000/svg">
<path fill-rule="evenodd" clip-rule="evenodd" d="M32.3712 39.9639L22 22H40.3386L45.0659 30.189L39.4219 39.9639C37.8548 42.6787 33.9383 42.6787 32.3712 39.9639ZM45.0659 30.189L49.7931 22H68.1317L57.7606 39.9616C56.1935 42.6763 52.2769 42.6763 50.7098 39.9616C47.3988 34.3342 53.2879 26.8733 59.6222 30.4294C57.2398 25.1413 49.2912 24.6252 45.0659 30.189Z" fill="#0FD998"/>
<path fill-rule="evenodd" clip-rule="evenodd" d="M75.9601 22H79.8178V27.0147C79.8178 30.1018 85.6031 37.4307 85.6031 37.4307C85.6031 37.4307 91.3884 30.1018 91.3884 27.0147V22H95.2461V27.0147C95.2461 30.1018 101.031 37.4307 101.031 37.4307C101.031 37.4307 106.817 30.1018 106.817 27.0147V22H110.674V27.0147C110.674 32.0295 102.959 41.286 102.959 41.286H99.1014C99.1014 41.286 95.5901 37.0819 93.3161 32.8378C91.0397 37.0795 87.5308 41.286 87.5308 41.286H83.6731C83.6731 41.286 75.9578 32.0295 75.9578 27.0147L75.9601 22ZM129.19 22L130.347 25.8577H121.861C119.933 25.8577 118.003 27.7877 118.003 29.7153V41.2883H114.146V22H118.003V25.549C118.159 23.5836 119.818 22 121.863 22H129.19ZM131.89 35.503C131.89 38.7032 134.473 41.2883 137.676 41.2883L145.391 41.286C148.591 41.286 151.176 38.7032 151.176 35.5006V27.7853C151.176 24.5851 148.594 22 145.391 22H137.676C134.476 22 131.89 24.5851 131.89 27.7877V35.503ZM147.319 35.5006C147.319 36.5799 146.47 37.4307 145.391 37.4307H137.676C136.596 37.4307 135.748 36.5823 135.748 35.503V27.7877C135.748 26.7084 136.596 25.86 137.676 25.86H145.391C146.47 25.86 147.319 26.7084 147.319 27.7877V35.5006ZM159.662 25.8577C158.583 25.8577 157.732 26.706 157.732 27.7853V41.286H153.875V27.7877C153.877 24.5851 156.46 22 159.662 22H167.378C170.58 22 173.163 24.5851 173.163 27.7853V41.286H169.305V27.7877C169.305 26.7084 168.457 25.86 167.378 25.86L159.662 25.8577ZM177.405 22L176.248 25.8577L188.978 25.86C190.057 25.86 190.906 26.7084 190.906 27.7877V29.7153H181.263C178.062 29.7153 175.477 32.3005 175.477 35.5006C175.477 38.7008 178.062 41.286 181.263 41.286H194.763V27.7853C194.763 24.5851 192.18 22 188.978 22H177.405ZM181.263 33.5753H190.906V37.4307H181.263C180.183 37.4307 179.335 36.5823 179.335 35.503C179.335 34.4237 180.183 33.5753 181.263 33.5753Z" fill="#F6F6F6"/>
</svg>
