<svg width="40" height="40" viewBox="0 0 40 40" fill="none" xmlns="http://www.w3.org/2000/svg">
<path fill-rule="evenodd" clip-rule="evenodd" d="M20 40C31.0457 40 40 31.0457 40 20C40 8.9543 31.0457 0 20 0C8.9543 0 0 8.9543 0 20C0 31.0457 8.9543 40 20 40ZM30.5576 16.3503C30.5576 16.1423 30.5576 15.9361 30.543 15.73C31.5063 15.0508 32.3389 14.2101 33 13.245C32.102 13.6335 31.1484 13.8881 30.1725 14.0002C31.2001 13.4007 31.9694 12.4575 32.337 11.347C31.3698 11.9055 30.3129 12.2998 29.2101 12.5116C27.3459 10.5804 24.2268 10.4873 22.2436 12.3036C20.9644 13.4748 20.4223 15.2208 20.8191 16.887C16.8596 16.6942 13.1711 14.8722 10.6712 11.8751C9.36466 14.0676 10.0316 16.8718 12.1951 18.2806C11.4112 18.2578 10.6449 18.0517 9.96039 17.6802V17.741C9.96039 20.0247 11.613 21.9911 13.9102 22.4432C13.1857 22.6361 12.4252 22.6646 11.6871 22.5259C12.3326 24.4799 14.1803 25.8184 16.2873 25.8573C14.543 27.192 12.3892 27.9168 10.172 27.9149C9.78001 27.9139 9.38903 27.8911 9 27.8455C11.2523 29.2533 13.8722 30 16.5476 29.9962V30C25.6045 30 30.5576 22.6893 30.5576 16.3503Z" fill="#0E212D"/>
</svg>
